<svg width="48" height="36" viewBox="0 0 48 36" fill="none" xmlns="http://www.w3.org/2000/svg">
<path d="M17.2219 16.6608L17.478 8.43945H14.5757L14.8318 16.6608H17.2219Z" fill="#6666CC"/>
<path d="M16.0272 18.1348C15.2305 18.1348 14.6045 18.7585 14.6045 19.5239C14.6045 20.2893 15.2305 20.913 16.0272 20.913C16.8239 20.913 17.4215 20.261 17.4215 19.5239C17.4215 18.7585 16.8239 18.1348 16.0272 18.1348Z" fill="#6666CC"/>
<path d="M44.7082 12.0117H29.7982C29.9405 12.7488 29.9974 13.5142 29.9974 14.2797H40.9807L35.0622 18.2769L30.4811 21.367L28.7454 20.1763C28.4324 20.8851 28.0625 21.5371 27.6357 22.1608L29.8267 23.6633C30.0258 23.805 30.2535 23.8617 30.4811 23.8617C30.7087 23.8617 30.9364 23.805 31.1356 23.6633L36.3427 20.1196L43.5416 15.2435V31.2042H17.4775V28.3693C16.9653 28.426 16.4532 28.4543 15.9125 28.4543C15.6564 28.4543 15.4288 28.4543 15.2012 28.426V32.3098C15.2012 32.9335 15.7133 33.4438 16.3393 33.4438H44.7082C45.3342 33.4438 45.8464 32.9335 45.8464 32.3098V13.089C45.8464 12.522 45.3342 12.0117 44.7082 12.0117Z" fill="#6666CC"/>
<path d="M15.8561 26.4981C16.3967 26.4981 16.9373 26.4698 17.4779 26.3847C21.0063 25.9028 24.0793 23.89 25.9289 21.0267C26.3557 20.403 26.6971 19.7226 26.9817 19.0139C27.5507 17.6248 27.8637 16.1223 27.8637 14.5347C27.8637 14.4497 27.8637 14.3646 27.8637 14.3079C27.8353 13.5425 27.7499 12.7771 27.6077 12.04C26.441 6.62525 21.6323 2.57129 15.8561 2.57129C9.22622 2.57129 3.84836 7.92932 3.84836 14.5347C3.84836 15.4419 3.96218 16.3491 4.16136 17.2279L2.79556 19.6092L1.00294 22.7277C0.80376 23.0962 0.80376 23.5498 1.03139 23.89C1.25903 24.2585 1.65739 24.457 2.0842 24.4286L5.72634 24.1735L8.48641 23.975C10.4213 25.4776 12.7545 26.3564 15.2016 26.4981C15.4292 26.4981 15.6284 26.4981 15.8561 26.4981ZM6.35234 17.965C6.49461 17.7098 6.55152 17.398 6.46616 17.1145C6.23852 16.264 6.1247 15.4135 6.1247 14.5631C6.1247 9.20504 10.5067 4.86759 15.8561 4.86759C20.3518 4.86759 24.1647 7.92931 25.2744 12.0683C25.4736 12.8054 25.5874 13.5425 25.5874 14.3363C25.5874 14.4213 25.5874 14.5064 25.5874 14.5631C25.5874 15.6687 25.3882 16.746 25.0468 17.7382C24.7907 18.4753 24.4492 19.1557 24.0509 19.8077C22.5997 22.0756 20.238 23.6915 17.4779 24.1451C16.9658 24.2302 16.4251 24.2869 15.8561 24.2869C15.6284 24.2869 15.4008 24.2869 15.2016 24.2585C13.1529 24.1168 11.1611 23.323 9.59612 21.9906C9.39694 21.8205 9.14085 21.7354 8.85631 21.7354C8.82786 21.7354 8.7994 21.7354 8.77095 21.7354L4.04754 22.0473L6.35234 17.965Z" fill="#6666CC"/>
</svg>
