<svg width="48" height="36" viewBox="0 0 48 36" fill="none" xmlns="http://www.w3.org/2000/svg">
<path d="M44.7686 7.85059H35.8339H23.2571C23.4563 8.55932 23.5986 9.32475 23.5986 10.1185H35.8339H41.0695L34.8665 14.3142L30.1146 17.5177L23.2287 12.8401C23.001 13.5772 22.6596 14.2859 22.2612 14.9096L29.5171 19.814C29.7162 19.9558 29.9439 20.0125 30.1431 20.0125C30.3707 20.0125 30.5983 19.9558 30.7975 19.814L36.1754 16.1853L43.6588 11.1108V27.6951H29.1756V29.9631H44.797C45.423 29.9631 45.9352 29.4528 45.9352 28.8291V8.98456C45.9067 8.36087 45.3945 7.85059 44.7686 7.85059Z" fill="#6666CC"/>
<path d="M14.3511 17.1214C14.5787 17.1498 14.7779 17.1498 15.0056 17.1498C15.5746 17.1498 16.1153 17.0931 16.6274 16.9513C18.3916 16.5261 19.8712 15.4488 20.8102 13.9747C21.237 13.3226 21.5216 12.6139 21.7208 11.8485C21.8346 11.3665 21.8915 10.8279 21.8915 10.3176C21.8915 10.2609 21.8915 10.2042 21.8915 10.1475C21.863 9.35372 21.7208 8.58829 21.4362 7.87956C20.4688 5.27142 17.9363 3.42871 15.0056 3.42871C11.2211 3.42871 8.11963 6.51879 8.11963 10.2893C8.11963 13.8613 10.8797 16.7813 14.3511 17.1214ZM15.0056 5.69666C16.6559 5.69666 18.0786 6.54714 18.9038 7.85121C19.3306 8.50324 19.5867 9.29703 19.6151 10.1192C19.6151 10.1759 19.6151 10.2326 19.6151 10.2893C19.6151 10.3176 19.6151 10.3743 19.6151 10.4026C19.5867 11.2248 19.3591 12.0186 18.9322 12.6989C18.3916 13.5494 17.5949 14.2298 16.6274 14.5984C16.1153 14.7968 15.5746 14.9102 15.0056 14.9102C14.7779 14.9102 14.5787 14.8818 14.3511 14.8535C12.1032 14.5417 10.396 12.6139 10.396 10.3176C10.396 7.76616 12.4731 5.69666 15.0056 5.69666Z" fill="#6666CC"/>
<path d="M22.2616 20.0412C20.5544 19.4459 18.6195 19.0774 16.6277 18.9356C16.2578 18.9073 15.9163 18.9073 15.5464 18.8789C15.3473 18.8789 15.1765 18.8789 14.9773 18.8789C14.7782 18.8789 14.579 18.8789 14.3514 18.8789C11.9896 18.9356 9.68485 19.3325 7.69306 20.0412C5.84353 20.6649 4.22164 21.5437 2.96965 22.6494C2.71356 22.8762 2.57129 23.188 2.57129 23.4998V31.466C2.57129 32.0897 3.08347 32.6 3.70946 32.6H26.2452C26.8712 32.6 27.3834 32.0897 27.3834 31.466V29.9918V27.7239V23.4998C27.3834 23.1597 27.2411 22.8478 26.985 22.6494C25.7615 21.5437 24.1396 20.6649 22.2616 20.0412ZM25.1071 27.6955V29.9635V30.3037H4.84763V24.0385C7.09552 22.3092 10.5669 21.2603 14.3514 21.1469C14.5505 21.1469 14.7782 21.1469 14.9773 21.1469C15.5464 21.1469 16.0871 21.1752 16.6277 21.2036C20.0138 21.4587 23.0868 22.4793 25.1071 24.0385V27.6955Z" fill="#6666CC"/>
</svg>
