<svg width="40" height="25" viewBox="0 0 40 25" fill="none" xmlns="http://www.w3.org/2000/svg">
<path d="M38.3405 0.528794C36.163 2.33951 33.9691 4.15023 31.7917 5.94492C28.419 8.73311 25.0464 11.5213 21.6738 14.3095C20.3313 15.4151 19.529 15.4151 18.1538 14.2935C12.8001 9.88684 7.43011 5.4642 2.07647 1.04156C1.86363 0.881323 1.66717 0.689034 1.4707 0.288433C2.07647 0.192289 2.6986 0.0160241 3.30437 0.0160241C8.78899 0 14.2572 0 19.7419 0C25.3083 0 30.8748 0 36.4413 0.0160241C37.0798 0.0160241 37.702 0.176265 38.3241 0.256385C38.3405 0.352529 38.3405 0.448673 38.3405 0.528794Z" fill="#6666CC"/>
<path d="M1.99707 24.5319C6.1883 20.7983 10.2158 17.2249 14.2761 13.6035C15.242 14.4047 16.1752 15.1739 17.1084 15.943C18.893 17.4012 20.8904 17.4172 22.6749 15.959C23.6081 15.1899 24.5577 14.4207 25.54 13.6035C29.5839 17.2089 33.595 20.7983 37.8026 24.5479C25.802 24.5319 14.0141 24.5319 1.99707 24.5319Z" fill="#6666CC"/>
<path d="M27.0273 12.355C31.235 8.8618 35.3771 5.44868 39.5028 2.01953C39.601 2.03556 39.6829 2.03556 39.7811 2.05158C39.863 5.59289 39.8466 9.11819 39.7975 12.6595C39.7484 16.1688 40.0595 19.7101 39.5847 23.2193C39.4864 23.2514 39.3882 23.2834 39.29 23.2995C35.2461 19.678 31.1858 16.0566 27.0273 12.355Z" fill="#6666CC"/>
<path d="M0.32744 23.4428C0.196464 22.7217 0.016372 22.2089 0.016372 21.6962C0 15.4628 0 9.21344 0 2.96406C0 2.67563 0.049116 2.38719 0.098232 1.8584C4.42044 5.43176 8.57893 8.86091 12.8029 12.3542C8.67716 16.0397 4.60053 19.6451 0.32744 23.4428Z" fill="#6666CC"/>
</svg>
