<svg width="34" height="39" viewBox="0 0 34 39" fill="none" xmlns="http://www.w3.org/2000/svg">
<path d="M0.000636403 9.94437C-0.0468361 4.83617 2.56415 1.61929 6.9791 0.196754C8.49822 -0.288202 9.90658 0.132093 11.0143 1.36065C12.5492 3.058 13.0714 5.20797 13.4987 7.37411C13.6727 8.26319 13.7202 9.18461 13.7202 10.106C13.7202 11.3023 13.1347 12.1428 12.0112 12.5631C11.3149 12.8218 10.6187 13.0643 9.93822 13.3552C9.06789 13.727 8.57734 14.3898 8.75141 15.392C8.878 16.1518 9.03625 16.9277 9.3369 17.639C10.9035 21.3408 13.3404 24.3961 16.3787 26.9502C16.9958 27.4675 17.7395 27.8878 18.4833 28.2111C19.5435 28.696 20.2714 28.4697 20.9835 27.5483C21.3316 27.1118 21.6165 26.6269 21.9171 26.1419C22.8666 24.6547 23.7369 24.2183 25.3985 24.7032C27.8354 25.4145 30.0666 26.5784 31.8864 28.3889C33.7853 30.2802 33.7853 32.5433 32.1396 34.6771C29.5444 38.0557 26.2213 38.8316 22.3286 37.797C19.8442 37.1343 17.5971 35.938 15.5558 34.4023C8.78306 29.3103 3.68767 22.8927 0.99756 14.6646C0.50701 13.1451 0.332944 11.5286 0.000636403 9.94437Z" fill="#6666CC"/>
</svg>
