<svg width="15" height="15" viewBox="0 0 15 15" fill="none" xmlns="http://www.w3.org/2000/svg">
<path fill-rule="evenodd" clip-rule="evenodd" d="M7.5 13.5947C10.8654 13.5947 13.5938 10.8663 13.5938 7.50046C13.5938 4.13464 10.8654 1.40625 7.5 1.40625C4.1346 1.40625 1.40625 4.13464 1.40625 7.50046C1.40625 10.8663 4.1346 13.5947 7.5 13.5947ZM7.5 15.0009C11.6421 15.0009 15 11.6428 15 7.50046C15 3.35807 11.6421 0 7.5 0C3.35786 0 0 3.35807 0 7.50046C0 11.6428 3.35786 15.0009 7.5 15.0009Z" fill="#494949"/>
<path d="M7.52437 12.188C6.97266 12.188 6.52126 11.7412 6.52126 11.1952C6.52126 10.6491 6.97266 10.2023 7.52437 10.2023C8.07609 10.2023 8.52749 10.6491 8.52749 11.1952C8.52749 11.7412 8.07609 12.188 7.52437 12.188ZM10.0393 6.9058C9.85304 7.19656 9.45179 7.60079 8.83559 8.1043C8.52032 8.36669 8.3197 8.57235 8.24805 8.73546C8.20697 8.81678 8.17757 8.91352 8.15984 9.04575C8.1255 9.30199 7.92857 9.51554 7.67005 9.51554H7.13388C6.93588 9.51554 6.77204 9.35895 6.77204 9.16096C6.77204 8.72127 6.84369 8.43761 6.99415 8.15394C7.13746 7.87027 7.43123 7.55114 7.8683 7.20365C8.30537 6.84907 8.57048 6.62213 8.65646 6.50867C8.78543 6.33847 8.85708 6.14699 8.85708 5.93424C8.85708 5.64348 8.74244 5.39527 8.50599 5.18961C8.26954 4.98395 7.96144 4.87758 7.5602 4.87758C7.18045 4.87758 6.85802 4.98395 6.60007 5.2038C6.48707 5.297 6.39057 5.41334 6.30937 5.55162C6.11262 5.88667 5.77657 6.15344 5.39094 6.10598C4.99489 6.05724 4.68924 5.70023 4.83472 5.32866C4.96885 4.98605 5.19188 4.67912 5.50381 4.40953C6.00537 3.96984 6.67172 3.75 7.48855 3.75C8.34836 3.75 9.03621 3.96984 9.54494 4.41662C10.0537 4.8634 10.3116 5.38109 10.3116 5.97679C10.3188 6.30301 10.2256 6.60795 10.0393 6.9058Z" fill="#494949"/>
<path fill-rule="evenodd" clip-rule="evenodd" d="M8.83559 8.1043C9.45179 7.60079 9.85304 7.19656 10.0393 6.9058C10.2256 6.60795 10.3188 6.30301 10.3116 5.97679C10.3116 5.38109 10.0537 4.8634 9.54494 4.41662C9.03621 3.96984 8.34836 3.75 7.48855 3.75C6.67172 3.75 6.00537 3.96984 5.50381 4.40953C5.19188 4.67912 4.96885 4.98605 4.83472 5.32866C4.68924 5.70023 4.99489 6.05724 5.39094 6.10598C5.77657 6.15344 6.11262 5.88667 6.30937 5.55162C6.39057 5.41334 6.48707 5.297 6.60007 5.2038C6.85802 4.98395 7.18045 4.87758 7.5602 4.87758C7.96144 4.87758 8.26954 4.98395 8.50599 5.18961C8.74244 5.39527 8.85708 5.64348 8.85708 5.93424C8.85708 6.14699 8.78543 6.33847 8.65646 6.50867C8.57048 6.62213 8.30537 6.84907 7.8683 7.20365C7.43123 7.55114 7.13746 7.87027 6.99415 8.15394C6.84369 8.4376 6.77204 8.72127 6.77204 9.16096C6.77204 9.2462 6.80241 9.32377 6.8528 9.38447C6.91945 9.46476 7.02113 9.51554 7.13388 9.51554H7.67005C7.81983 9.51554 7.94894 9.44386 8.03773 9.33372C8.10219 9.25376 8.1454 9.15353 8.15984 9.04575C8.17757 8.91352 8.20697 8.81678 8.24805 8.73546C8.3197 8.57235 8.52032 8.36669 8.83559 8.1043ZM8.10452 10.3865C7.97807 10.2972 7.83004 10.2362 7.67005 10.2129C7.62246 10.2059 7.57382 10.2023 7.52437 10.2023C7.38606 10.2023 7.25405 10.2304 7.13388 10.2811C7.0445 10.3188 6.96167 10.369 6.88767 10.4295C6.66426 10.6119 6.52126 10.8878 6.52126 11.1952C6.52126 11.7412 6.97266 12.188 7.52437 12.188C8.07609 12.188 8.52749 11.7412 8.52749 11.1952C8.52749 10.8626 8.36006 10.5669 8.10452 10.3865ZM7.47541 11.2301C7.48937 11.2439 7.50608 11.2505 7.52437 11.2505C7.54267 11.2505 7.55937 11.2439 7.57333 11.2301C7.58716 11.2164 7.58999 11.2043 7.58999 11.1952C7.58999 11.1861 7.58716 11.174 7.57333 11.1603C7.55937 11.1465 7.54267 11.1398 7.52437 11.1398C7.50608 11.1398 7.48937 11.1465 7.47541 11.1603C7.46159 11.174 7.45876 11.1861 7.45876 11.1952C7.45876 11.2043 7.46159 11.2164 7.47541 11.2301Z" fill="#494949"/>
</svg>
