<svg width="35" height="28" viewBox="0 0 35 28" fill="none" xmlns="http://www.w3.org/2000/svg">
<g clip-path="url(#clip0)">
<path d="M21 28C28.732 28 35 21.732 35 14C35 6.26801 28.732 0 21 0C13.268 0 7 6.26801 7 14C7 21.732 13.268 28 21 28Z" fill="#EDEDED"/>
<path d="M21 0H-26V28H21V0Z" fill="#EDEDED"/>
<path d="M24.156 10.1362C24.156 7.58018 22.5 6.28418 20.448 6.28418C18.36 6.28418 16.74 7.63418 16.74 10.2082V11.3242H19.26V10.3342C19.26 9.02018 19.71 8.57018 20.448 8.57018C21.15 8.57018 21.636 9.05618 21.636 10.1902C21.636 13.0342 16.668 14.6722 16.668 18.8482V20.0002H24.282V17.6962H19.494C20.214 15.3382 24.156 13.6642 24.156 10.1362Z" fill="#6666CC"/>
</g>
<defs>
<clipPath id="clip0">
<rect width="35" height="28" fill="white"/>
</clipPath>
</defs>
</svg>
