<svg width="35" height="28" viewBox="0 0 35 28" fill="none" xmlns="http://www.w3.org/2000/svg">
<g clip-path="url(#clip0)">
<path d="M21 28C28.732 28 35 21.732 35 14C35 6.26801 28.732 0 21 0C13.268 0 7 6.26801 7 14C7 21.732 13.268 28 21 28Z" fill="#EDEDED"/>
<path d="M21 0H-26V28H21V0Z" fill="#EDEDED"/>
<path d="M20.592 14.2582C21.546 14.2582 22.176 14.6902 22.176 15.8602V16.2922C22.176 17.4802 21.582 17.9302 20.682 17.9302C19.8 17.9302 19.188 17.4802 19.188 16.3102V15.5902H16.668V16.5802C16.668 18.9562 18.468 20.2162 20.682 20.2162C22.896 20.2162 24.696 18.9562 24.696 16.5802V15.6802C24.696 14.3482 24.012 13.3942 22.968 12.8542C23.832 12.3322 24.39 11.4502 24.39 10.2802V9.59618C24.39 7.43618 22.734 6.28418 20.682 6.28418C18.63 6.28418 16.974 7.41818 16.974 9.70418V10.4422H19.494V9.84818C19.494 8.93018 19.98 8.57018 20.682 8.57018C21.402 8.57018 21.87 8.93018 21.87 9.88418V10.4422C21.87 11.5402 21.366 11.9362 20.592 11.9362H19.602V14.2582H20.592Z" fill="#6666CC"/>
</g>
<defs>
<clipPath id="clip0">
<rect width="35" height="28" fill="white"/>
</clipPath>
</defs>
</svg>
