<svg width="13" height="13" viewBox="0 0 13 13" fill="none" xmlns="http://www.w3.org/2000/svg">
<path d="M4.88817e-05 6.22698C-0.00647488 7.86806 0.640238 9.44389 1.79656 10.6044C2.95283 11.7648 4.523 12.4138 6.1582 12.4073C6.74002 12.4055 7.31871 12.3215 7.87713 12.1578C7.99856 12.1217 8.10105 12.0392 8.16258 11.9281C8.25652 11.7605 8.23959 11.5523 8.1198 11.4021C8.00003 11.2518 7.80136 11.1897 7.61772 11.245C7.14476 11.3831 6.65477 11.4539 6.16216 11.4552C4.77771 11.461 3.44826 10.9116 2.46933 9.92916C1.49035 8.94666 0.942928 7.61242 0.948717 6.22299C0.953645 4.82681 1.51031 3.48967 2.49659 2.50498C3.47772 1.51518 4.81008 0.956484 6.20127 0.951522C7.58562 0.94598 8.91492 1.49545 9.89384 2.47791C10.8727 3.46031 11.4202 4.7944 11.4147 6.18374C11.4136 6.57145 11.37 6.95738 11.2844 7.33762C11.269 7.40592 11.2688 7.47673 11.2839 7.54512L10.2967 7.46836L11.4765 9.20599L13 7.67696L12.1855 7.61443C12.1951 7.59088 12.2027 7.56649 12.2082 7.5417C12.3095 7.09437 12.3611 6.63791 12.3634 6.18096C12.37 4.53961 11.7233 2.96359 10.5669 1.80296C9.41043 0.642341 7.84003 -0.00662191 6.20463 5.09547e-05C4.56161 0.00629989 2.98812 0.666317 1.82942 1.83543C0.664096 2.99829 0.0061346 4.57774 4.88817e-05 6.22698Z" fill="#A2A2A2"/>
<path fill-rule="evenodd" clip-rule="evenodd" d="M5.88953 3.10156C6.18609 3.10156 6.42651 3.33649 6.42651 3.62628V6.70495H9.02142C9.31799 6.70495 9.55841 6.93988 9.55841 7.22967C9.55841 7.51947 9.31799 7.75439 9.02142 7.75439H5.88953C5.59296 7.75439 5.35254 7.51947 5.35254 7.22967V3.62628C5.35254 3.33649 5.59296 3.10156 5.88953 3.10156Z" fill="#A2A2A2"/>
</svg>
