<svg t="1650879346605" class="icon" viewBox="0 0 1024 1024" version="1.1" xmlns="http://www.w3.org/2000/svg" p-id="1289" width="200" height="200"><path d="M512 14.41185223C237.71970333 14.41185223 14.41185223 237.71970333 14.41185223 512S237.71970333 1009.58814777 512 1009.58814777 1009.58814777 786.28029667 1009.58814777 512 786.28029667 14.41185223 512 14.41185223z m271.85303666 398.07051776l-2.42725888 2.42726002-315.54370333 315.54370332c-12.13629667 12.13629667-33.98163001 14.56355555-48.54518556 2.42725888L414.90963001 730.45333333l-169.90814891-169.90814776c-14.56355555-14.56355555-14.56355555-36.40888889 0-50.97244445 12.13629667-12.13629667 33.98163001-14.56355555 48.54518557-2.42726002l2.42725888 2.42726002 143.20829667 143.20829554 288.84385223-288.84385109c12.13629667-12.13629667 33.98163001-14.56355555 48.54518443-2.42726002l2.42726002 2.42726002c14.56355555 14.56355555 14.56355555 36.40888889 4.85451776 48.54518442z" fill="#36ab60" p-id="1290"></path></svg>