<svg t="1650879331530" class="icon" viewBox="0 0 1024 1024" version="1.1" xmlns="http://www.w3.org/2000/svg" p-id="1140" width="200" height="200"><path d="M512 2.27555555C230.51377778 2.27555555 2.27555555 230.51377778 2.27555555 512s228.23822222 509.72444445 509.72444445 509.72444445 509.72444445-228.23822222 509.72444445-509.72444445S793.48622222 2.27555555 512 2.27555555z m-36.40888889 263.96444445c0-5.00622222 4.096-9.10222222 9.10222222-9.10222222h54.61333334c5.00622222 0 9.10222222 4.096 9.10222222 9.10222222v309.47555555c0 5.00622222-4.096 9.10222222-9.10222222 9.10222223h-54.61333334c-5.00622222 0-9.10222222-4.096-9.10222222-9.10222223V266.24z m36.40888889 500.62222222c-30.15111111 0-54.61333333-24.46222222-54.61333333-54.61333333s24.46222222-54.61333333 54.61333333-54.61333334 54.61333333 24.46222222 54.61333333 54.61333334-24.46222222 54.61333333-54.61333333 54.61333333z" fill="#f4ea2a" p-id="1141"></path></svg>