<svg width="100%" height="100%" viewBox="0 0 535 453" fill="none" xmlns="http://www.w3.org/2000/svg">
<path fill-rule="evenodd" clip-rule="evenodd" d="M50.2514 95.5774H50.2503C50.2503 42.862 93.1123 0 145.828 0C184.256 0 218.742 22.6627 234.015 58.1347L197.558 73.4074C188.69 52.7154 168.49 39.4134 145.828 39.4134C114.79 39.4134 89.6639 64.5391 89.6636 95.5768H89.6647V176.375H131.049V215.788H39.4133V396.597H252.245V372.456H291.659V436.01H0V176.375H50.2514V95.5774ZM380.448 326.146C354.654 345.757 323.478 355.705 292.645 355.705C255.695 355.705 218.252 341.418 190.17 313.336C133.513 256.679 133.513 165.043 190.17 108.387C246.827 51.7298 338.463 51.7298 395.119 108.387C446.982 160.249 451.37 241.422 408.285 298.245L443.096 333.056L450.012 326.142L535.001 411.155L493.191 452.953L408.202 367.94L415.223 360.921L380.448 326.146ZM292.645 104.938C319.741 104.938 346.838 115.284 367.53 135.976C408.914 177.36 408.914 244.363 367.53 285.254C326.146 326.145 259.143 326.638 218.252 285.254C177.361 243.87 176.868 176.867 218.252 135.976C238.451 115.284 265.548 104.938 292.645 104.938ZM292.642 254.709C326.144 254.709 354.226 227.612 365.064 215.788C368.02 212.832 368.02 208.398 365.064 205.442C354.226 193.618 326.144 166.522 292.642 166.522C259.141 166.522 231.059 193.618 220.22 205.442C217.264 208.398 217.264 212.832 220.22 215.788C231.059 227.612 259.141 254.709 292.642 254.709ZM268.009 210.369C268.009 196.574 278.848 185.736 292.642 185.736C306.437 185.736 317.276 197.067 317.276 210.369C317.276 224.164 306.437 235.002 292.642 235.002C278.848 235.002 268.009 224.164 268.009 210.369Z" fill="black" fill-opacity="0.1"/>
</svg>
