<svg width="45" height="45" viewBox="0 0 45 45" fill="none" xmlns="http://www.w3.org/2000/svg">
<path d="M30.5471 26.3063H17.5994C17.1369 26.3063 16.7516 25.998 16.6231 25.5613L12.8724 12.9732H8.40234V10.918H13.6431C14.1055 10.918 14.4909 11.2262 14.6193 11.663L18.3701 24.2768H29.725L31.6775 16.1844H19.1664V14.1292H32.9876C33.2959 14.1292 33.6042 14.2834 33.784 14.5146C33.9896 14.7715 34.0409 15.0797 33.9639 15.388L31.5233 25.5356C31.4206 25.9723 31.0095 26.3063 30.5471 26.3063Z" fill="#FF6666"/>
<path d="M28.6964 35.2951C26.7953 35.2951 25.2539 33.7537 25.2539 31.8526C25.2539 29.9516 26.7953 28.4102 28.6964 28.4102C30.5974 28.4102 32.1388 29.9516 32.1388 31.8526C32.1388 33.7537 30.5717 35.2951 28.6964 35.2951ZM28.6964 30.4654C27.9257 30.4654 27.3091 31.0819 27.3091 31.8526C27.3091 32.6233 27.9257 33.2399 28.6964 33.2399C29.4671 33.2399 30.0836 32.6233 30.0836 31.8526C30.0836 31.0819 29.4414 30.4654 28.6964 30.4654Z" fill="#FF6666"/>
<path d="M19.1885 35.2951C17.2875 35.2951 15.7461 33.7537 15.7461 31.8526C15.7461 29.9516 17.2875 28.4102 19.1885 28.4102C21.0896 28.4102 22.631 29.9516 22.631 31.8526C22.631 33.7537 21.0896 35.2951 19.1885 35.2951ZM19.1885 30.4654C18.4179 30.4654 17.8013 31.0819 17.8013 31.8526C17.8013 32.6233 18.4179 33.2399 19.1885 33.2399C19.9592 33.2399 20.5758 32.6233 20.5758 31.8526C20.5758 31.0819 19.9592 30.4654 19.1885 30.4654Z" fill="#FF6666"/>
</svg>
