<svg width="21" height="22" viewBox="0 0 21 22" fill="none" xmlns="http://www.w3.org/2000/svg">
<g clip-path="url(#clip0)">
<path d="M16.9339 13.5849C16.8045 14.6415 16.4718 15.6415 15.9726 16.5283H14.0871C14.235 15.6038 14.3459 14.6604 14.3828 13.7358L13.0703 12.3962C12.8855 12.2075 12.6821 12.0189 12.4973 11.8302H5.54658C5.58355 10.7736 5.67598 9.6981 5.86084 8.6415H9.74288C9.50256 8.1698 9.3177 7.66037 9.1883 7.13206H6.1751C6.34147 6.45282 6.52633 5.77357 6.74816 5.09433C7.46911 4.84905 8.24552 4.6981 9.0589 4.67923C9.13284 4.15093 9.24376 3.6415 9.42862 3.1698C9.37316 3.1698 9.3177 3.1698 9.26224 3.1698C4.16013 3.1698 0.0192871 7.39622 0.0192871 12.6038C0.0192871 17.8113 4.16013 22.0377 9.26224 22.0377C14.3644 22.0377 18.5052 17.8113 18.5052 12.6038C18.5052 12.4151 18.5052 12.2264 18.4867 12.0566L16.9339 13.5849ZM4.91805 5.99999C4.82562 6.37735 4.7332 6.75471 4.64077 7.1132H3.62404C4.01224 6.6981 4.43742 6.33961 4.91805 5.99999ZM2.51489 8.6415H4.36348C4.1971 9.6981 4.10467 10.7547 4.0677 11.8302H1.51665C1.62756 10.6792 1.97879 9.58489 2.51489 8.6415ZM2.51489 16.5283C1.97879 15.566 1.62756 14.4906 1.51665 13.3396H4.08619C4.12316 14.3962 4.23408 15.4717 4.41893 16.5283H2.51489ZM3.62404 18.0377H4.71471C4.80714 18.434 4.89957 18.8302 5.01048 19.2264C4.49288 18.8679 4.03073 18.4717 3.62404 18.0377ZM11.6654 20.0943C10.9075 20.3585 10.0941 20.4906 9.24376 20.4906C8.41189 20.4906 7.59851 20.3585 6.84059 20.0943C6.60027 19.3962 6.41541 18.717 6.23055 18.0189H12.257C12.0906 18.717 11.8872 19.4151 11.6654 20.0943ZM12.5897 16.5283H5.91629C5.73143 15.4717 5.60203 14.3962 5.56506 13.3396H12.9409C12.8855 14.3962 12.7746 15.4528 12.5897 16.5283ZM13.4955 19.1887C13.6064 18.7924 13.6989 18.4151 13.7913 18.0189H14.8635C14.4383 18.4717 13.9946 18.8679 13.4955 19.1887Z" fill="#111111"/>
<path d="M15.5651 13.1321C15.3802 13.1321 15.1954 13.0566 15.066 12.9245L13.7165 11.5472C13.2359 11.0566 12.7367 10.566 12.2561 10.1132C12.0897 9.94339 11.9234 9.79245 11.757 9.62264C10.6293 8.5283 10.0193 7 10.0563 5.41509C10.1487 2.41509 12.5149 0.037735 15.4542 -8.85047e-07C16.933 -0.0188688 18.3195 0.547169 19.3732 1.60377C20.4269 2.66038 20.9999 4.07547 20.9999 5.5849C20.9999 7.01887 20.4638 8.37736 19.5026 9.41509C19.4841 9.43396 19.4656 9.4717 19.4286 9.49056L16.0642 12.9245C15.9348 13.0566 15.7499 13.1321 15.5651 13.1321ZM15.5281 1.43396C15.5096 1.43396 15.4911 1.43396 15.4726 1.43396C13.3283 1.4717 11.5351 3.26415 11.4797 5.43396C11.4427 6.60377 11.9049 7.75472 12.7367 8.54717C12.9031 8.71698 13.0695 8.86792 13.2359 9.03773C13.735 9.50943 14.2341 10 14.7332 10.5094L15.5836 11.3774L18.3934 8.50943C18.4119 8.49056 18.4304 8.4717 18.4489 8.45283C19.1883 7.67924 19.595 6.64151 19.595 5.56604C19.595 4.45283 19.1698 3.39623 18.3934 2.62264C17.5985 1.86792 16.6003 1.43396 15.5281 1.43396Z" fill="#111111"/>
<path d="M16.1381 6.6415V6.77357H15.2138V6.5849C15.2138 5.62263 16.1011 5.33961 16.1011 4.79244C16.1011 4.52829 15.9347 4.39622 15.6574 4.39622C15.3986 4.39622 15.1768 4.54716 15.1768 4.96225V5.15093H14.1416V4.88678C14.1416 3.92452 14.8441 3.45282 15.639 3.45282C16.4893 3.45282 17.1178 3.94339 17.1178 4.77357C17.1363 5.6981 16.1566 5.86791 16.1381 6.6415ZM15.1214 7.92452C15.1214 7.62263 15.3617 7.35848 15.6759 7.35848C15.9902 7.35848 16.2305 7.60376 16.2305 7.92452C16.2305 8.2264 15.9902 8.49055 15.6759 8.49055C15.3617 8.47169 15.1214 8.2264 15.1214 7.92452Z" fill="#111111"/>
</g>
<defs>
<clipPath id="clip0">
<rect width="21" height="22" fill="white"/>
</clipPath>
</defs>
</svg>
