<svg viewBox="0 0 62 49" fill="#fc0" xmlns="http://www.w3.org/2000/svg">
<path d="M30.3961 0.905499C27.1629 -0.958552 23.0363 0.147023 21.1722 3.38019C21.0565 3.57945 21.0565 3.57945 21.1722 3.38019L0.905499 38.4693C-0.958552 41.7025 0.147023 45.8291 3.38019 47.6932C6.61335 49.5572 10.74 48.4517 12.604 45.2185L32.8643 10.1229C34.7284 6.9026 33.6228 2.76955 30.3961 0.905499Z" />
<path d="M58.6201 0.905499C55.3869 -0.958552 51.2603 0.147023 49.3963 3.38019C49.2806 3.57945 49.2806 3.57945 49.3963 3.38019L29.136 38.4758C27.2719 41.7089 28.3775 45.8356 31.6107 47.6996C34.8438 49.5637 38.9704 48.4581 40.8345 45.2249L61.0948 10.1293C62.9589 6.9026 61.8468 2.76955 58.6201 0.905499Z" />
</svg>
