<svg width="34" height="34" viewBox="0 0 34 34" fill="none" xmlns="http://www.w3.org/2000/svg">
<circle opacity="0.8" cx="17" cy="17" r="17" fill="#F4F4F4"/>
<g filter="url(#filter0_d_4465_1038)">
<mask id="path-2-inside-1_4465_1038" fill="white">
<path fill-rule="evenodd" clip-rule="evenodd" d="M16.999 6.0835C14.8183 6.0835 13.0505 7.85132 13.0505 10.032V11.4255H11.6511C10.6645 11.4255 9.84982 12.1967 9.79579 13.1819L9.20988 23.8662C9.15149 24.9308 9.99902 25.8261 11.0652 25.8261H22.9338C24 25.8261 24.8475 24.9308 24.7891 23.8662L24.2032 13.1819C24.1492 12.1967 23.3345 11.4255 22.3478 11.4255H20.9476V10.032C20.9476 7.85132 19.1798 6.0835 16.999 6.0835ZM19.554 11.4255V10.032C19.554 8.62099 18.4101 7.4771 16.999 7.4771C15.588 7.4771 14.4441 8.62099 14.4441 10.032V11.4255H19.554Z"/>
</mask>
<path fill-rule="evenodd" clip-rule="evenodd" d="M16.999 6.0835C14.8183 6.0835 13.0505 7.85132 13.0505 10.032V11.4255H11.6511C10.6645 11.4255 9.84982 12.1967 9.79579 13.1819L9.20988 23.8662C9.15149 24.9308 9.99902 25.8261 11.0652 25.8261H22.9338C24 25.8261 24.8475 24.9308 24.7891 23.8662L24.2032 13.1819C24.1492 12.1967 23.3345 11.4255 22.3478 11.4255H20.9476V10.032C20.9476 7.85132 19.1798 6.0835 16.999 6.0835ZM19.554 11.4255V10.032C19.554 8.62099 18.4101 7.4771 16.999 7.4771C15.588 7.4771 14.4441 8.62099 14.4441 10.032V11.4255H19.554Z" fill="white"/>
<path d="M13.0505 11.4255V11.5806H13.2056V11.4255H13.0505ZM9.79579 13.1819L9.95066 13.1904L9.79579 13.1819ZM9.20988 23.8662L9.36475 23.8747L9.20988 23.8662ZM24.7891 23.8662L24.944 23.8577L24.7891 23.8662ZM24.2032 13.1819L24.0483 13.1904L24.2032 13.1819ZM20.9476 11.4255H20.7925V11.5806H20.9476V11.4255ZM19.554 11.4255V11.5806H19.7091V11.4255H19.554ZM14.4441 11.4255H14.289V11.5806H14.4441V11.4255ZM13.2056 10.032C13.2056 7.93698 14.904 6.2386 16.999 6.2386V5.92839C14.7326 5.92839 12.8954 7.76566 12.8954 10.032H13.2056ZM13.2056 11.4255V10.032H12.8954V11.4255H13.2056ZM11.6511 11.5806H13.0505V11.2704H11.6511V11.5806ZM9.95066 13.1904C10.0002 12.2874 10.7468 11.5806 11.6511 11.5806V11.2704C10.5821 11.2704 9.69946 12.106 9.64092 13.1734L9.95066 13.1904ZM9.36475 23.8747L9.95066 13.1904L9.64092 13.1734L9.05501 23.8577L9.36475 23.8747ZM11.0652 25.671C10.088 25.671 9.31124 24.8504 9.36475 23.8747L9.05501 23.8577C8.99175 25.0112 9.91003 25.9812 11.0652 25.9812V25.671ZM22.9338 25.671H11.0652V25.9812H22.9338V25.671ZM24.6342 23.8747C24.6877 24.8504 23.911 25.671 22.9338 25.671V25.9812C24.089 25.9812 25.0072 25.0112 24.944 23.8577L24.6342 23.8747ZM24.0483 13.1904L24.6342 23.8747L24.944 23.8577L24.3581 13.1734L24.0483 13.1904ZM22.3478 11.5806C23.2522 11.5806 23.9988 12.2874 24.0483 13.1904L24.3581 13.1734C24.2995 12.106 23.4169 11.2704 22.3478 11.2704V11.5806ZM20.9476 11.5806H22.3478V11.2704H20.9476V11.5806ZM20.7925 10.032V11.4255H21.1027V10.032H20.7925ZM16.999 6.2386C19.0941 6.2386 20.7925 7.93698 20.7925 10.032H21.1027C21.1027 7.76566 19.2654 5.92839 16.999 5.92839V6.2386ZM19.7091 11.4255V10.032H19.3989V11.4255H19.7091ZM19.7091 10.032C19.7091 8.53533 18.4957 7.322 16.999 7.322V7.6322C18.3244 7.6322 19.3989 8.70665 19.3989 10.032H19.7091ZM16.999 7.322C15.5023 7.322 14.289 8.53533 14.289 10.032H14.5992C14.5992 8.70665 15.6736 7.6322 16.999 7.6322V7.322ZM14.289 10.032V11.4255H14.5992V10.032H14.289ZM14.4441 11.5806H19.554V11.2704H14.4441V11.5806Z" fill="#F0F0F0" mask="url(#path-2-inside-1_4465_1038)"/>
</g>
<path d="M17.1804 15.9486C17.1804 15.5034 17.5405 15.1423 17.9847 15.1423H13.1588C12.7146 15.1423 12.3545 15.5034 12.3545 15.9486C12.3545 16.3938 12.7146 16.7548 13.1588 16.7548H17.9847C17.5405 16.7548 17.1804 16.3938 17.1804 15.9486Z" fill="#66CCCC"/>
<path d="M17.4742 21.8295L15.0612 17.6401C15.2833 18.0258 15.1515 18.5189 14.7667 18.7416C14.382 18.9642 13.89 18.832 13.668 18.4464L16.0809 22.6357C16.303 23.0214 16.795 23.1535 17.1797 22.9309C17.5644 22.7083 17.6962 22.2151 17.4742 21.8295Z" fill="#6666CC"/>
<path d="M20.7988 15.2502C20.4141 15.0276 19.9221 15.1597 19.7 15.5454L17.2871 19.7347C17.5092 19.3491 18.0012 19.2169 18.3859 19.4395C18.7706 19.6622 18.9024 20.1553 18.6804 20.541L21.0933 16.3516C21.3154 15.966 21.1836 15.4733 20.7988 15.2502Z" fill="#FF6666"/>
<path d="M17.984 16.7546C18.4282 16.7546 18.7883 16.3936 18.7883 15.9483C18.7883 15.5031 18.4282 15.1421 17.984 15.1421C17.5398 15.1421 17.1797 15.5031 17.1797 15.9483C17.1797 16.3936 17.5398 16.7546 17.984 16.7546Z" fill="#FFCC00"/>
<path d="M14.3649 18.8493C14.8091 18.8493 15.1692 18.4883 15.1692 18.0431C15.1692 17.5978 14.8091 17.2368 14.3649 17.2368C13.9206 17.2368 13.5605 17.5978 13.5605 18.0431C13.5605 18.4883 13.9206 18.8493 14.3649 18.8493Z" fill="#FFCC00"/>
<path d="M17.984 20.944C18.4282 20.944 18.7883 20.5831 18.7883 20.1378C18.7883 19.6925 18.4282 19.3315 17.984 19.3315C17.5398 19.3315 17.1797 19.6925 17.1797 20.1378C17.1797 20.5831 17.5398 20.944 17.984 20.944Z" fill="#FFCC00"/>
<defs>
<filter id="filter0_d_4465_1038" x="6.8805" y="5.30799" width="18.687" height="22.8447" filterUnits="userSpaceOnUse" color-interpolation-filters="sRGB">
<feFlood flood-opacity="0" result="BackgroundImageFix"/>
<feColorMatrix in="SourceAlpha" type="matrix" values="0 0 0 0 0 0 0 0 0 0 0 0 0 0 0 0 0 0 127 0" result="hardAlpha"/>
<feOffset dx="-0.77551" dy="0.77551"/>
<feGaussianBlur stdDeviation="0.77551"/>
<feColorMatrix type="matrix" values="0 0 0 0 0 0 0 0 0 0 0 0 0 0 0 0 0 0 0.1 0"/>
<feBlend mode="normal" in2="BackgroundImageFix" result="effect1_dropShadow_4465_1038"/>
<feBlend mode="normal" in="SourceGraphic" in2="effect1_dropShadow_4465_1038" result="shape"/>
</filter>
</defs>
</svg>
