<svg width="56" height="56" viewBox="0 0 56 56" fill="none" xmlns="http://www.w3.org/2000/svg">
<path d="M22.6282 33.6428C19.7708 33.6428 17.4492 31.3212 17.4492 28.4639C17.4492 25.6065 19.7708 23.2849 22.6282 23.2849C25.4855 23.2849 27.8071 25.6065 27.8071 28.4639C27.8071 31.3212 25.4855 33.6428 22.6282 33.6428ZM22.6282 25.666C21.0804 25.666 19.8303 26.9161 19.8303 28.4639C19.8303 30.0116 21.0804 31.2617 22.6282 31.2617C24.1759 31.2617 25.426 30.0116 25.426 28.4639C25.426 26.9161 24.1759 25.666 22.6282 25.666Z" fill="#6DC0C3"/>
<path d="M30.4256 45.0425C29.7708 45.0425 29.235 44.5067 29.235 43.8519V38.9111C27.6575 37.7801 25.2466 37.0955 22.6274 37.0955C20.0082 37.0955 17.5973 37.7503 16.0198 38.9111V43.8519C16.0198 44.5067 15.484 45.0425 14.8292 45.0425C14.1744 45.0425 13.6387 44.5067 13.6387 43.8519V38.3158C13.6387 37.9586 13.7875 37.6312 14.0554 37.4229C16.0198 35.7263 19.2343 34.7144 22.6274 34.7144C26.0503 34.7144 29.235 35.7263 31.1995 37.4229C31.4673 37.661 31.6161 37.9884 31.6161 38.3158V43.8519C31.6161 44.5067 31.0804 45.0425 30.4256 45.0425Z" fill="#6DC0C3"/>
<path d="M37.0921 50.3999H16.7335C16.0787 50.3999 15.543 49.8642 15.543 49.2094C15.543 48.5546 16.0787 48.0188 16.7335 48.0188H37.0921C37.7469 48.0188 38.2827 48.5546 38.2827 49.2094C38.2827 49.8642 37.7469 50.3999 37.0921 50.3999Z" fill="#6666CB"/>
<path d="M46.1997 45.5782H7.62556C6.94098 45.5782 6.3457 45.0127 6.3457 44.2983V18.0762C6.3457 17.3917 6.91122 16.7964 7.62556 16.7964H24.6803V19.3263H8.87565V43.0185H44.9199V26.4995H47.4498V44.2983C47.4498 45.0127 46.8843 45.5782 46.1997 45.5782Z" fill="#6666CC"/>
<path d="M35.603 29.0293C35.4542 29.0293 35.3054 28.9996 35.1565 28.9401C34.7101 28.7615 34.4124 28.315 34.4124 27.8388V23.6123C30.3943 23.0468 27.2988 19.5644 27.2988 15.3974C27.2988 10.8138 31.0193 7.09326 35.603 7.09326H46.2883C50.8422 7.09326 54.5627 10.8138 54.5627 15.3974C54.5627 19.9811 50.8422 23.7016 46.2585 23.7016H41.407L36.4066 28.7019C36.228 28.9103 35.9006 29.0293 35.603 29.0293ZM35.603 9.47438C32.3289 9.47438 29.68 12.1234 29.68 15.3974C29.68 18.6715 32.3289 21.3205 35.603 21.3205C36.2578 21.3205 36.7936 21.8562 36.7936 22.511V24.9814L40.0974 21.6776C40.3355 21.4395 40.6331 21.3205 40.9308 21.3205H46.2585C49.5326 21.3205 52.1816 18.6715 52.1816 15.3974C52.1816 12.1234 49.5326 9.47438 46.2585 9.47438H35.603Z" fill="#6666CC"/>
<path d="M46.5866 17.1833C47.5729 17.1833 48.3725 16.3837 48.3725 15.3974C48.3725 14.4111 47.5729 13.6116 46.5866 13.6116C45.6003 13.6116 44.8008 14.4111 44.8008 15.3974C44.8008 16.3837 45.6003 17.1833 46.5866 17.1833Z" fill="#66CCCC"/>
<path d="M40.9304 17.1833C41.9167 17.1833 42.7162 16.3837 42.7162 15.3974C42.7162 14.4111 41.9167 13.6116 40.9304 13.6116C39.9441 13.6116 39.1445 14.4111 39.1445 15.3974C39.1445 16.3837 39.9441 17.1833 40.9304 17.1833Z" fill="#66CCCC"/>
<path d="M35.3054 17.1833C36.2917 17.1833 37.0912 16.3837 37.0912 15.3974C37.0912 14.4111 36.2917 13.6116 35.3054 13.6116C34.3191 13.6116 33.5195 14.4111 33.5195 15.3974C33.5195 16.3837 34.3191 17.1833 35.3054 17.1833Z" fill="#66CCCC"/>
</svg>
