<svg width="56" height="56" viewBox="0 0 56 56" fill="none" xmlns="http://www.w3.org/2000/svg">
<path d="M8.02632 37.5833H4.1001C3.39394 37.5833 2.80078 37.0184 2.80078 36.284V11.7664C2.80078 11.0602 3.3657 10.467 4.1001 10.467H34.0975C34.8036 10.467 35.3968 11.032 35.3968 11.7664V16.1425H32.8264V13.0657H5.39942V35.0412H8.41973V37.5833H8.02632Z" fill="#66CCCC"/>
<path d="M41.3827 45.0947H11.3853C10.6791 45.0947 10.0859 44.5298 10.0859 43.7954V19.2495C10.0859 18.5434 10.6509 17.9502 11.3853 17.9502H41.3827C42.0888 17.9502 42.682 18.5151 42.682 19.2495V43.7954C42.682 44.5298 42.0888 45.0947 41.3827 45.0947ZM12.6846 42.5243H40.1116V20.5488H12.6846V42.5243Z" fill="#6666CC"/>
<path d="M51.609 40.7449C51.5525 40.7449 51.4678 40.7449 51.4113 40.7167L44.0391 39.5021V36.9599L50.3097 37.9485V25.1248L44.0391 26.1134V23.5713L51.4113 22.3567C51.7785 22.3002 52.1739 22.4132 52.4564 22.6391C52.7389 22.8934 52.9083 23.2323 52.9083 23.6278V39.4738C52.9083 39.841 52.7389 40.2082 52.4564 40.4624C52.2022 40.6319 51.9197 40.7449 51.609 40.7449Z" fill="#6666CC"/>
<path d="M28.7863 32.7521C28.5604 32.7521 28.3344 32.6956 28.1367 32.5826C27.5153 32.2154 27.3175 31.4245 27.6565 30.8313L29.8879 26.9616C30.2551 26.3402 31.046 26.1425 31.6392 26.4814C32.2606 26.8486 32.4583 27.6395 32.1194 28.2327L29.8879 32.1024C29.662 32.5261 29.2383 32.7521 28.7863 32.7521Z" fill="#66CCCC"/>
<path d="M26.2432 37.1858C25.7913 37.1858 25.3676 36.9598 25.1134 36.5361L22.8819 32.6664C22.5147 32.045 22.7407 31.2541 23.3621 30.9151C23.9835 30.5479 24.7744 30.7739 25.1134 31.3953L27.3448 35.265C27.712 35.8865 27.4861 36.6773 26.8646 37.0163C26.6669 37.1293 26.4409 37.1858 26.2432 37.1858Z" fill="#66CCCC"/>
<path d="M25.9048 28.8816H21.4419C20.7357 28.8816 20.1426 28.3167 20.1426 27.5823C20.1426 26.8761 20.7075 26.283 21.4419 26.283H25.9048C26.6109 26.283 27.2041 26.8479 27.2041 27.5823C27.2041 28.3167 26.6109 28.8816 25.9048 28.8816Z" fill="#66CCCC"/>
</svg>
