<svg width="24" height="24" viewBox="0 0 20 14" fill="none" xmlns="http://www.w3.org/2000/svg">
<path d="M19.1555 1.00194C18.0678 1.90643 16.9719 2.81092 15.8842 3.7074C14.1995 5.10016 12.5148 6.49291 10.8301 7.88567C10.1595 8.43797 9.75878 8.43797 9.07182 7.87766C6.39756 5.67647 3.71513 3.46727 1.04087 1.25807C0.934557 1.17803 0.836419 1.08198 0.738281 0.881871C1.04087 0.833845 1.35164 0.745797 1.65423 0.745797C4.39391 0.737793 7.12542 0.737793 9.8651 0.737793C12.6457 0.737793 15.4262 0.737793 18.2068 0.745797C18.5258 0.745797 18.8365 0.825841 19.1473 0.865862C19.1555 0.913888 19.1555 0.961914 19.1555 1.00194Z" fill="#111111"/>
<path d="M1 12.992C3.09361 11.127 5.10543 9.342 7.13361 7.53302C7.61612 7.93324 8.08228 8.31744 8.54843 8.70165C9.43985 9.43005 10.4376 9.43805 11.329 8.70966C11.7952 8.32545 12.2695 7.94124 12.7602 7.53302C14.7802 9.33399 16.7838 11.127 18.8856 13C12.891 12.992 7.00276 12.992 1 12.992Z" fill="#111111"/>
<path d="M13.5039 6.90944C15.6057 5.1645 17.6748 3.45957 19.7357 1.74664C19.7847 1.75465 19.8256 1.75465 19.8747 1.76265C19.9156 3.53161 19.9074 5.29257 19.8829 7.06152C19.8583 8.81447 20.0137 10.5834 19.7765 12.3364C19.7275 12.3524 19.6784 12.3684 19.6293 12.3764C17.6093 10.5674 15.5812 8.75844 13.5039 6.90944Z" fill="#111111"/>
<path d="M0.163563 12.4481C0.0981378 12.0879 0.00817815 11.8318 0.00817815 11.5756C0 8.46195 0 5.34025 0 2.21856C0 2.07448 0.0245345 1.9304 0.0490689 1.66626C2.2081 3.45123 4.28535 5.16416 6.39531 6.9091C4.33442 8.7501 2.29806 10.5511 0.163563 12.4481Z" fill="#111111"/>
</svg>