<svg width="81" height="73" viewBox="0 0 81 73" fill="none" xmlns="http://www.w3.org/2000/svg">
<path d="M44.0927 7.35306C44.0927 3.29362 47.3833 0.00195312 51.4415 0.00195312H7.34878C3.29062 0.00195312 0 3.29362 0 7.35306C0 11.4125 3.29062 14.7042 7.34878 14.7042H51.4415C47.3833 14.7042 44.0927 11.4125 44.0927 7.35306Z" fill="#66CCCC"/>
<path d="M46.7839 60.9745L24.7375 22.7773C26.7666 26.2936 25.5622 30.79 22.0471 32.8198C18.5319 34.8495 14.0369 33.6447 12.0078 30.1284L34.0542 68.3256C36.0833 71.8419 40.5783 73.0467 44.0934 71.0169C47.6086 68.9872 48.813 64.4908 46.7839 60.9745Z" fill="#6666CC"/>
<path d="M77.1637 0.985892C73.6486 -1.04383 69.1536 0.160935 67.1245 3.67721L45.0781 41.8744C47.1072 38.3581 51.6022 37.1533 55.1174 39.1831C58.6326 41.2128 59.8369 45.7092 57.8079 49.2255L79.8542 11.0283C81.8833 7.51204 80.6789 3.0197 77.1637 0.985892Z" fill="#FF6666"/>
<path d="M51.4425 14.7042C55.5012 14.7042 58.7913 11.413 58.7913 7.35306C58.7913 3.29316 55.5012 0.00195312 51.4425 0.00195312C47.3839 0.00195312 44.0938 3.29316 44.0938 7.35306C44.0938 11.413 47.3839 14.7042 51.4425 14.7042Z" fill="#FFCC00"/>
<path d="M18.3722 33.8048C22.4308 33.8048 25.721 30.5135 25.721 26.4536C25.721 22.3937 22.4308 19.1025 18.3722 19.1025C14.3136 19.1025 11.0234 22.3937 11.0234 26.4536C11.0234 30.5135 14.3136 33.8048 18.3722 33.8048Z" fill="#FFCC00"/>
<path d="M51.4425 52.9014C55.5012 52.9014 58.7913 49.6102 58.7913 45.5503C58.7913 41.4904 55.5012 38.1992 51.4425 38.1992C47.3839 38.1992 44.0938 41.4904 44.0938 45.5503C44.0938 49.6102 47.3839 52.9014 51.4425 52.9014Z" fill="#FFCC00"/>
</svg>
