<svg width="131" height="38" viewBox="0 0 131 38" fill="none" xmlns="http://www.w3.org/2000/svg">
<path d="M60.3719 34.1159H54.0814L46.4414 11.5967H51.1151L57.2266 30.5135L63.3361 11.5967H68.0098L60.3719 34.1159Z" fill="#111111"></path>
<path d="M76.2934 11.5967H71.8008V34.1159H76.2934V11.5967Z" fill="#111111"></path>
<path d="M94.7868 34.566C91.7753 34.566 89.171 33.1246 87.4184 30.7368V34.1144H82.9258V0.749023H87.4184V14.9728C89.171 12.5849 91.7774 11.1436 94.7868 11.1436C100.942 11.1436 105.57 15.9625 105.57 22.8537C105.57 29.747 100.942 34.566 94.7868 34.566ZM87.4184 22.8558C87.4184 27.4046 90.3395 30.4213 94.2479 30.4213C98.1563 30.4213 101.077 27.4046 101.077 22.8558C101.077 18.307 98.1563 15.2882 94.2479 15.2882C90.3395 15.2882 87.4184 18.307 87.4184 22.8558Z" fill="#111111"></path>
<path d="M130.911 24.3848H113.299C113.838 28.3026 116.353 30.5997 120.128 30.5997C122.868 30.5997 124.666 29.3831 125.565 27.3561H130.416C129.023 31.9957 125.115 34.5629 119.947 34.5629C113.568 34.5629 108.895 29.7439 108.895 22.8527C108.895 15.9615 113.568 11.1426 119.947 11.1426C126.328 11.1426 131 15.9615 131 22.8527C131 23.395 130.957 23.8899 130.911 24.3848ZM113.342 21.1433H126.552C126.013 17.3595 123.541 15.1078 119.947 15.1078C116.308 15.1078 113.881 17.3595 113.342 21.1433Z" fill="#111111"></path>
<path d="M74.0582 8.14686C76.1032 8.14686 77.7609 6.48511 77.7609 4.43525C77.7609 2.38538 76.1032 0.723633 74.0582 0.723633C72.0132 0.723633 70.3555 2.38538 70.3555 4.43525C70.3555 6.48511 72.0132 8.14686 74.0582 8.14686Z" fill="#111111"></path>
<path d="M22.2164 4.43622C22.2164 2.38659 23.8744 0.724609 25.9191 0.724609H3.70273C1.658 0.724609 0 2.38659 0 4.43622C0 6.48586 1.658 8.14784 3.70273 8.14784H25.9191C23.8744 8.14784 22.2164 6.48586 22.2164 4.43622Z" fill="#66CCCC"></path>
<path d="M23.5729 31.5096L12.4647 12.2236C13.4871 13.999 12.8803 16.2693 11.1091 17.2941C9.33798 18.3189 7.07315 17.7106 6.05078 15.9352L17.159 35.2212C18.1813 36.9966 20.4462 37.6049 22.2173 36.5801C23.9884 35.5553 24.5953 33.285 23.5729 31.5096Z" fill="#6666CC"></path>
<path d="M38.8814 1.22044C37.1102 0.195621 34.8454 0.803913 33.823 2.5793L22.7148 21.8653C23.7372 20.0899 26.002 19.4816 27.7732 20.5064C29.5443 21.5312 30.1512 23.8015 29.1288 25.5769L40.237 6.29092C41.2593 4.51553 40.6525 2.24732 38.8814 1.22044Z" fill="#FF6666"></path>
<path d="M25.9176 8.14686C27.9625 8.14686 29.6203 6.48511 29.6203 4.43525C29.6203 2.38538 27.9625 0.723633 25.9176 0.723633C23.8726 0.723633 22.2148 2.38538 22.2148 4.43525C22.2148 6.48511 23.8726 8.14686 25.9176 8.14686Z" fill="#FFCC00"></path>
<path d="M9.25741 17.7904C11.3024 17.7904 12.9601 16.1287 12.9601 14.0788C12.9601 12.0289 11.3024 10.3672 9.25741 10.3672C7.21245 10.3672 5.55469 12.0289 5.55469 14.0788C5.55469 16.1287 7.21245 17.7904 9.25741 17.7904Z" fill="#FFCC00"></path>
<path d="M25.9176 27.433C27.9625 27.433 29.6203 25.7712 29.6203 23.7214C29.6203 21.6715 27.9625 20.0098 25.9176 20.0098C23.8726 20.0098 22.2148 21.6715 22.2148 23.7214C22.2148 25.7712 23.8726 27.433 25.9176 27.433Z" fill="#FFCC00"></path>
</svg>