<svg width="100%" height="100%" viewBox="0 0 724 654" fill="none" xmlns="http://www.w3.org/2000/svg">
<path d="M675.711 12.9497C629.575 -13.7308 570.36 2.14067 543.69 48.3869C543.622 48.5237 541.778 51.7048 538.602 57.212C523.474 23.5535 489.666 0.0199159 450.463 0.0199159H96.6423C43.3354 0.0199159 0 43.4612 0 96.8222C0 150.183 43.3354 193.625 96.6423 193.625H106.785C86.1244 222.323 82.1289 261.181 99.0328 294.258C99.7841 295.729 278.35 605.565 278.316 605.565C291.225 627.969 312.056 643.978 336.985 650.648C345.317 652.871 353.752 654 362.153 654C378.886 654 395.414 649.587 410.303 641.002C456.439 614.321 472.318 555.009 445.682 508.797C445.579 508.626 443.769 505.513 440.593 500.006C443.803 500.348 447.048 500.553 450.292 500.553C458.692 500.553 467.127 499.458 475.46 497.201C478.567 496.38 481.641 495.388 484.612 494.259C505.477 486.392 522.859 471.683 534.128 452.118C534.504 451.468 710.577 146.01 711.055 145.189C737.726 98.943 721.846 39.6302 675.711 12.9497ZM366.797 355.315C365.158 358.189 363.655 361.13 362.289 364.106C316.427 284.543 268.754 201.834 268.789 201.834C267.969 200.397 267.115 198.995 266.227 197.627C266.125 197.456 265.988 197.285 265.886 197.114C265.1 195.916 264.315 194.753 263.495 193.59H450.497C453.809 193.59 457.087 193.419 460.297 193.077C414.572 272.4 367.07 354.836 366.797 355.315ZM136.904 278.113C136.768 277.873 136.665 277.668 136.563 277.429C135.743 275.992 134.992 274.521 134.343 273.05C134.206 272.743 134.104 272.4 133.967 272.093C133.353 270.69 132.772 269.254 132.294 267.817C132.26 267.714 132.26 267.646 132.226 267.543C125.362 246.609 131.611 223.349 148.037 208.641C148.071 208.607 148.105 208.572 148.174 208.504C149.335 207.444 150.598 206.486 151.896 205.528C152.135 205.357 152.34 205.152 152.579 204.981C154.081 203.886 155.686 202.86 157.326 201.902C166.068 196.84 175.629 194.446 185.055 194.446C203.085 194.446 220.706 203.236 231.327 219.039C232.044 220.1 232.693 221.16 233.342 222.289C248.675 248.901 239.557 283.073 212.989 298.431C186.352 313.858 152.271 304.725 136.904 278.113ZM506.126 96.8222C506.126 127.573 481.163 152.578 450.463 152.578C419.762 152.578 394.799 127.573 394.799 96.8222C394.799 66.0713 419.762 41.0668 450.463 41.0668C481.163 41.0668 506.126 66.0713 506.126 96.8222ZM40.9791 96.8222C40.9791 66.0713 65.9422 41.0668 96.6423 41.0668H371.578C360.445 56.8357 353.854 76.0593 353.854 96.8222C353.854 117.551 360.411 136.775 371.578 152.578H96.6423C65.9422 152.543 40.9791 127.539 40.9791 96.8222ZM389.848 605.428C376.973 612.885 361.982 614.834 347.605 611.003C333.262 607.138 321.242 597.937 313.797 585.007C313.285 584.118 228.322 436.691 176.347 346.524C179.318 346.798 182.289 346.969 185.26 346.969C201.651 346.969 218.248 342.796 233.41 334.005C251.338 323.641 264.691 308.317 272.75 290.769C324.725 380.935 409.654 528.328 410.201 529.252C425.534 555.898 416.416 590.069 389.848 605.428ZM464.874 457.556C459.478 458.993 454.014 459.609 448.584 459.438C439.569 459.13 430.69 456.633 422.631 451.981C411.362 445.482 402.893 435.459 398.385 423.419C397.736 421.709 397.19 419.93 396.677 418.151C395.243 412.747 394.594 407.274 394.799 401.835C395.107 392.805 397.6 383.911 402.244 375.839C409.688 362.943 421.675 353.708 436.052 349.877C440.832 348.577 445.716 347.961 450.531 347.961C460.161 347.961 469.689 350.492 478.26 355.452C491.134 362.909 500.355 374.915 504.179 389.282C508.038 403.682 506.057 418.699 498.613 431.594C491.237 444.455 479.216 453.691 464.874 457.556ZM675.608 124.563C675.54 124.7 649.484 169.92 554.379 334.894L538.158 363.012C529.859 344.985 516.302 329.969 498.784 319.844C481.265 309.719 461.493 305.443 441.754 307.29C493.9 216.816 579.171 68.8419 579.171 68.8761C594.504 42.264 628.619 33.0969 655.187 48.4895C681.789 63.8479 690.907 98.0194 675.608 124.563Z" fill="black" fill-opacity="0.05"/>
</svg>
