<svg width="56" height="56" viewBox="0 0 56 56" fill="none" xmlns="http://www.w3.org/2000/svg">
<path d="M41.0616 21.0368L14.459 21.3035L14.4812 23.8202L41.0837 23.5535L41.0616 21.0368Z" fill="#6666CC"/>
<path d="M24.8223 54.044V51.5273L39.9816 49.4195L39.9226 28.4678H42.2821L42.3411 50.5835C42.3411 51.2442 41.8692 51.779 41.2793 51.8419L24.8223 54.044Z" fill="#6666CC"/>
<path d="M21.9022 54.1385C21.6957 54.1385 21.5187 54.0756 21.3418 53.9812L14.6174 50.0174C14.234 49.7972 14.0275 49.3882 13.9981 48.9478L13.7031 29.3173L16.0626 29.2859L16.328 48.1928L20.6929 50.7724V22.6794H23.0524V52.8487C23.0524 53.2891 22.8459 53.6981 22.4625 53.9183C22.3445 54.0756 22.1086 54.1385 21.9022 54.1385Z" fill="#6666CC"/>
<path d="M25.9132 30.5439C25.4708 30.5439 25.0579 30.2923 24.881 29.8833L21.8137 23.6544L23.9077 22.4904L26.6211 27.9957L43.0781 27.0834L40.1583 23.0252C39.8044 22.5533 39.8339 21.8927 40.1878 21.4523L42.6652 18.3693H35.6164L31.9593 22.7106C31.7233 22.9623 31.4284 23.1196 31.0745 23.1196C30.7501 23.1196 30.4257 22.9623 30.1897 22.7106L26.6801 18.5895H12.9954L15.3843 21.7354L13.5557 23.3083L9.60367 18.1491C9.30874 17.7715 9.24976 17.2682 9.45621 16.8278C9.66266 16.3873 10.0756 16.1042 10.518 16.1042H27.2109C27.5353 16.1042 27.8598 16.2615 28.0957 16.5132L31.0745 20.0051L34.2302 16.2615C34.4662 16.0098 34.7611 15.8525 35.115 15.8525H45.2311C45.703 15.8525 46.1159 16.1357 46.2928 16.5761C46.4993 17.0165 46.4108 17.5513 46.1159 17.9288L42.6062 22.3017L46.3223 27.4609C46.5878 27.8385 46.6467 28.3418 46.4698 28.7508C46.2928 29.1912 45.9094 29.4429 45.467 29.4743L26.0017 30.5439C25.9427 30.5439 25.9132 30.5439 25.9132 30.5439Z" fill="#6666CC"/>
<path d="M23.7598 12.9899H16.6225C16.0326 12.9899 15.5312 12.4866 15.5312 11.8259V4.21281C15.5312 3.58363 16.0031 3.04883 16.6225 3.04883H23.7598C24.3496 3.04883 24.851 3.55217 24.851 4.21281V11.8259C24.851 12.4866 24.3791 12.9899 23.7598 12.9899ZM17.7137 10.6619H22.698V5.3768H17.7137V10.6619Z" fill="#66CCCC"/>
<path d="M32.5484 12.5179H28.4194C27.8295 12.5179 27.3281 12.0145 27.3281 11.3539V6.94963C27.3281 6.32045 27.8 5.78564 28.4194 5.78564H32.5484C33.1382 5.78564 33.6396 6.28899 33.6396 6.94963V11.3539C33.6396 12.0145 33.1677 12.5179 32.5484 12.5179ZM29.5106 10.2214H31.4866V8.11362H29.5106V10.2214Z" fill="#66CCCC"/>
<path d="M19.0128 30.5756C18.9538 30.5756 18.8654 30.5756 18.8064 30.5441L10.4599 28.9397C10.047 28.8768 9.72256 28.5622 9.57509 28.1532C9.42763 27.7443 9.48661 27.2724 9.75205 26.9263L13.5566 21.7671C13.7926 21.4525 14.117 21.2952 14.5004 21.2952L21.6377 21.3895C22.0211 21.3895 22.4045 21.6098 22.611 21.9558C22.8174 22.3019 22.8764 22.7423 22.7289 23.1198L20.1041 29.7891C19.9271 30.261 19.4847 30.5756 19.0128 30.5756ZM12.7898 26.832L18.2755 27.9016L19.8386 23.8748L15.0313 23.8119L12.7898 26.832Z" fill="#6666CC"/>
</svg>
